<svg xmlns="http://www.w3.org/2000/svg" viewBox="0 0 1008 1008" width="1008" height="1008" role="img" aria-label="2 Girls on the Go logo">
  <defs>
    <linearGradient id="blueGrad" x1="0.5" y1="0.05" x2="0.5" y2="0.95">
      <stop offset="0%" stop-color="#3FA9DD"/>
      <stop offset="55%" stop-color="#2C8AC4"/>
      <stop offset="100%" stop-color="#1F6A9E"/>
    </linearGradient>
  </defs>
  <g transform="translate(0,1008) scale(0.1,-0.1)" stroke="none" fill-rule="evenodd">
    <path fill="#F03339" d="M4280 9413 c-19 -1 -87 -8 -150 -14 -1661 -155 -3121 -1304 -3679
-2894 -226 -643 -299 -1404 -200 -2090 151 -1058 688 -2021 1504 -2700 1031
-858 2319 -1178 3785 -940 532 87 1069 254 1537 480 461 223 608 354 658 591
23 107 22 1467 -1 1545 -33 112 -117 208 -232 262 l-67 32 -694 3 -694 3 -156
-70 c-1242 -552 -2194 -816 -2615 -726 -337 71 -434 351 -250 718 19 37 32 67
29 67 -33 0 -138 -65 -182 -113 -89 -98 -97 -133 -98 -392 0 -335 52 -441 252
-518 l58 -22 1793 -3 1792 -2 -2 -183 -3 -182 -110 -57 c-801 -414 -1954 -554
-2786 -339 -1680 435 -2722 2124 -2384 3861 247 1264 1232 2287 2470 2565
1043 234 2070 -35 2885 -755 161 -142 207 -165 335 -165 146 0 184 20 347 187
192 195 238 276 238 419 0 151 -55 249 -223 392 -738 633 -1515 959 -2472
1037 -110 9 -602 11 -685 3z"/>
    <path fill="url(#blueGrad)" d="M4400 8079 c-506 -46 -950 -202 -1320 -462 -171 -121 -511 -468 -510
-522 0 -5 203 -140 451 -299 437 -280 451 -288 465 -268 218 311 590 495 1029
509 505 16 790 -132 891 -462 27 -88 25 -311 -4 -420 -76 -284 -236 -485 -802
-1010 -668 -619 -965 -973 -1181 -1405 -85 -169 -132 -304 -133 -385 l-1 -60
45 -3 c205 -15 642 131 1157 388 l212 105 498 470 c605 570 911 874 1027 1020
240 302 366 557 428 865 33 169 33 535 -1 690 -150 681 -698 1116 -1556 1236
-138 19 -545 27 -695 13z M6916 6430 c-42 -27 -76 -51 -76 -54 0 -10 214 -157
819 -565 254 -171 254 -171 307 -251 30 -44 54 -83 54 -87 -1 -5 -56 -48 -123
-97 -119 -88 -304 -224 -619 -459 l-157 -116 -173 60 c-95 34 -240 83 -321
111 l-148 50 -104 -68 c-58 -38 -105 -71 -105 -74 0 -3 41 -26 91 -50 50 -25
120 -61 156 -81 l65 -36 -228 -145 c-1381 -876 -2377 -1365 -2907 -1428 -303
-36 -389 88 -282 407 89 264 245 512 513 810 93 104 93 111 1 52 -146 -94
-459 -447 -572 -644 -36 -64 -48 -77 -85 -91 -23 -9 -45 -21 -48 -25 -2 -5 12
-1 32 7 47 20 47 20 13 -51 -144 -294 -102 -556 104 -661 279 -143 834 -64
1689 242 98 35 199 72 225 83 26 10 98 38 158 61 132 50 585 239 744 309 62
28 121 51 131 51 10 0 20 4 22 9 2 5 111 59 243 119 132 61 321 149 420 197
99 48 199 95 222 105 l42 19 5 -27 c3 -15 10 -81 16 -147 6 -66 13 -138 15
-160 2 -22 4 -57 4 -77 1 -50 4 -49 119 28 l100 67 6 101 c4 55 9 130 12 166
6 85 24 381 24 397 0 7 213 139 473 294 259 155 477 286 483 290 7 6 31 -21
68 -77 l57 -86 90 -446 c111 -560 164 -811 172 -819 4 -3 42 18 86 46 74 49
79 55 85 94 6 39 76 920 76 952 0 8 42 42 93 76 50 34 98 69 105 77 48 62 -62
240 -143 230 l-32 -4 -6 166 c-2 91 -1 170 4 176 5 6 69 47 142 90 519 307
883 707 783 859 -102 155 -625 -34 -1112 -402 l-122 -92 -123 55 c-68 31 -139
62 -156 69 l-32 14 15 37 c15 35 14 39 -11 90 -69 142 -116 153 -250 64 -49
-33 -96 -60 -104 -60 -8 0 -84 23 -170 51 -573 187 -767 249 -782 249 -9 0
-51 -22 -93 -50z M6123 3693 c15 -2 37 -2 50 0 12 2 0 4 -28 4 -27 0 -38 -2
-22 -4z M6273 3693 c32 -2 81 -2 110 0 29 2 3 3 -58 3 -60 0 -84 -1 -52 -3z"/>
  </g>
</svg>
